PathFileType	4	(X/Y/Z)	pose_F01_0-60.trc
DataRate	CameraRate	NumFrames	NumMarkers	Units	OrigDataRate	OrigDataStartFrame	OrigNumFrames
30	30	5	21	m	30	0	60
Frame#	Time	CHip			RHip			RKnee			RAnkle			RBigToe			RSmallToe			RHeel			LHip			LKnee			LAnkle			LBigToe			LSmallToe			LHeel			Neck			Nose			RShoulder			RElbow			RWrist			LShoulder			LElbow			LWrist			
		X1	Y1	Z1	X2	Y2	Z2	X3	Y3	Z3	X4	Y4	Z4	X5	Y5	Z5	X6	Y6	Z6	X7	Y7	Z7	X8	Y8	Z8	X9	Y9	Z9	X10	Y10	Z10	X11	Y11	Z11	X12	Y12	Z12	X13	Y13	Z13	X14	Y14	Z14	X15	Y15	Z15	X16	Y16	Z16	X17	Y17	Z17	X18	Y18	Z18	X19	Y19	Z19	X20	Y20	Z20	X21	Y21	Z21	
0	0.0	-0.12640411964396375	1.8258806136396895	-0.6482368219275833	-0.11713849567432702	1.82550967352521	-0.5996253812712838	-0.1728240279423822	1.7092933076656907	-0.5435571373465693	-0.15678303375114233	1.5712581267519063	-0.5307093685735295	-0.20379706564791253	1.5640575040043798	-0.5112325087859786	-0.18196402503514378	1.5510941417827961	-0.48422239061657135	-0.14239716390130072	1.5599864755001762	-0.5489555510497864	-0.12307840041507503	1.8245938069669612	-0.7008104119773219	-0.1251967167114596	1.698030574838012	-0.6782189061539534	-0.11535618217729363	1.5552447725338578	-0.656519389964867	-0.1610744248058294	1.5301974150221096	-0.5993729730022153	-0.47422692564566454	1.3854372303368705	-1.7779763668459339	-0.09719469271044154	1.5441020193187542	-0.648785144867134	-0.11647243179789137	1.9946213285533034	-0.6863564393890463	-0.15707957722219487	2.0622720566306723	-0.6553739788504279	-0.10563021975428183	1.995753007065031	-0.61337010342631	-0.07908203019869894	1.9234643229833321	-0.6057450786444205	-0.2248340593621799	1.9024218294750188	-0.45835244017208565	-0.14103577930732603	1.9977228937620481	-0.7400880302446367	-0.17112241273020506	1.9124751361903554	-0.7035850816635153	-0.2270065785720799	1.9112366972827899	-0.6696166660362215
1	0.03333333333333333	-0.12964985330387604	1.8280248686996692	-0.6405064257533246	-0.125261711687418	1.8273146572696166	-0.5904929342751088	-0.1717756327259033	1.7106921932348145	-0.5405152358346096	-0.16000505978301754	1.5766918155655982	-0.5283910555891396	-0.20354617679013212	1.5622473988248844	-0.5070979547756862	-0.18196402503514378	1.5510941417827961	-0.48422239061657135	-0.1485750939017751	1.5666948511960006	-0.5438613003173911	-0.12643402861478426	1.8280711030199563	-0.6934262100368844	-0.12598090135071086	1.6989109911055806	-0.6735518728524272	-0.11523662115432952	1.557048954496978	-0.6572606583226642	-0.16209423885489685	1.530241136455194	-0.6024660661987287	-0.314937309062328	1.4580383020933472	-1.2059945600642568	-0.09800927336871064	1.5442713441148062	-0.652102979543163	-0.11913364785653732	1.994487563211381	-0.6753735866435515	-0.15822254887067744	2.0595680964999024	-0.6490908276192802	-0.10902703537472044	1.995529183845628	-0.6053019365637831	-0.09743934272089297	1.9196191927269275	-0.5806899690043513	-0.2248340593621799	1.9024218294750188	-0.45835244017208565	-0.13725997768390322	1.996604502416036	-0.7358614521322684	-0.1703497504109675	1.9109446798905392	-0.7002138554759709	-0.2270065785720799	1.9112366972827899	-0.6696166660362215
2	0.06666666666666667	-0.13289558696378834	1.830169123759649	-0.632776029579066	-0.133384927700509	1.8291196410140231	-0.5813604872789339	-0.1707272375094244	1.7120910788039383	-0.5374733343226499	-0.16322708581489276	1.5821255043792901	-0.5260727426047497	-0.20329528793235171	1.560437293645389	-0.5029634007653938	-0.18196402503514378	1.5510941417827961	-0.48422239061657135	-0.15475302390224946	1.573403226891825	-0.5387670495849958	-0.12978965681449348	1.8315483990729515	-0.686042008096447	-0.1267650859899621	1.6997914073731493	-0.6688848395509011	-0.11511706013136541	1.5588531364600984	-0.6580019266804614	-0.1631140529039643	1.5302848578882784	-0.6055591593952421	-0.1556476924789914	1.5306393738498238	-0.6340127532825796	-0.09882385402697974	1.544440668910858	-0.655420814219192	-0.12179486391518328	1.9943537978694585	-0.6643907338980567	-0.15936552051916	2.0568641363691325	-0.6428076763881324	-0.11242385099515906	1.995305360626225	-0.5972337697012561	-0.115796655243087	1.9157740624705228	-0.5556348593642821	-0.2248340593621799	1.9024218294750188	-0.45835244017208565	-0.1334841760604804	1.9954861110700237	-0.7316348740199001	-0.16957708809172994	1.909414223590723	-0.6968426292884266	-0.2270065785720799	1.9112366972827899	-0.6696166660362215
3	0.1	-0.13614132062370063	1.8323133788196286	-0.6250456334048073	-0.1415081437136	1.8309246247584297	-0.5722280402827589	-0.1696788422929455	1.7134899643730621	-0.5344314328106902	-0.16644911184676797	1.587559193192982	-0.5237544296203598	-0.2030443990745713	1.5586271884658935	-0.4988288467551014	-0.18196402503514378	1.5510941417827961	-0.48422239061657135	-0.16093095390272383	1.5801116025876494	-0.5336727988526004	-0.1331452850142027	1.8350256951259467	-0.6786578061560096	-0.12754927062921337	1.700671823640718	-0.6642178062493749	-0.1149974991084013	1.5606573184232186	-0.6587431950382586	-0.16413386695303175	1.5303285793213628	-0.6086522525917555	-0.15662556356699295	1.5310875187545168	-0.637235947508277	-0.09963843468524884	1.54460999370691	-0.6587386488952209	-0.12445607997382924	1.994220032527536	-0.6534078811525619	-0.16050849216764257	2.0541601762383626	-0.6365245251569847	-0.11582066661559767	1.995081537406822	-0.5891656028387291	-0.13415396776528102	1.9119289322141182	-0.530579749724213	-0.2248340593621799	1.9024218294750188	-0.45835244017208565	-0.1297083744370576	1.9943677197240115	-0.7274082959075319	-0.16880442577249238	1.9078837672909068	-0.6934714031008822	-0.2270065785720799	1.9112366972827899	-0.6696166660362215
4	0.13333333333333333	-0.14508599973320738	1.8342675803457305	-0.6073133003328008	-0.15012825029758844	1.8314600003826722	-0.5541815187927712	-0.16858279066542972	1.7080148946877602	-0.5262941711385207	-0.16987505868213984	1.5883423385683464	-0.5157612990315116	-0.2027935102167909	1.5568170832863981	-0.494694292744809	-0.18196402503514378	1.5510941417827961	-0.48422239061657135	-0.16485781084765036	1.581145569737678	-0.5296850898822709	-0.13877971385451265	1.8359505452223024	-0.6684706910966796	-0.12687155920965748	1.7019942269115866	-0.6607216407571233	-0.11466285647332532	1.5608360092182716	-0.654630316015653	-0.1634010645368254	1.5317015116524741	-0.6051722837303921	-0.15571221200374852	1.5312078274295935	-0.6340578880522243	-0.09883431123411132	1.5447052120236349	-0.6554621446437184	-0.1301444880032027	1.9928948611523045	-0.6431182847128617	-0.16302113233667354	2.05167081249332	-0.6254522019599175	-0.12751725074488893	1.9920783518926728	-0.5714229609835266	-0.15251128028747504	1.9080838019577135	-0.5055246400841438	-0.2248340593621799	1.9024218294750188	-0.45835244017208565	-0.13259437688880996	1.9941042415882833	-0.7169062831388838	-0.16331813470007378	1.9129958619870058	-0.6957761592584223	-0.2270065785720799	1.9112366972827899	-0.6696166660362215
